# xmcd CD database file
#
# Track frame offsets:
#	150
#	13657
#	36637
#	51875
#	62737
#	76440
#	96927
#	110675
#	118947
#	132885
#	147850
#	159632
#	186792
#	200105
#	214607
#	247670
#
# Disc length: 3513 seconds
#
# Revision: 0
# Processed by: cddbd v1.4PL0 Copyright (c) Steve Scherf et al.
# Submitted via: CDex 1.51
#
DISCID=ec0db710
DTITLE=Duke Ellington - Sophisticated Lady
DYEAR=1900
DGENRE=Jazz
TTITLE0=Sophisticated Lady
TTITLE1=Mood Indigo
TTITLE2=Moon Mist
TTITLE3=Perdido
TTITLE4=Take The "A" Train
TTITLE5=The Moochie
TTITLE6=Caravan
TTITLE7=Do Nothing Til You Hear From Me
TTITLE8=Passion Flower
TTITLE9=Things Ain't What They Used To Be
TTITLE10=Paris Blues
TTITLE11=C Jam Blues
TTITLE12=Rockin' In Rhythm
TTITLE13=Jump For Joy
TTITLE14=Diminuendo and Crescendo In Blue
TTITLE15=Solitude
EXTD=
EXTT0=
EXTT1=
EXTT2=
EXTT3=
EXTT4=
EXTT5=
EXTT6=
EXTT7=
EXTT8=
EXTT9=
EXTT10=
EXTT11=
EXTT12=
EXTT13=
EXTT14=
EXTT15=
PLAYORDER=
